<svg xmlns="http://www.w3.org/2000/svg" viewBox="0 0 1024 1024" role="img" aria-labelledby="title desc">
  <title id="title">Despertá</title>
  <desc id="desc">Nube despierta con una estrella de amanecer.</desc>
  <defs>
    <linearGradient id="background" x1="112" y1="96" x2="912" y2="928" gradientUnits="userSpaceOnUse">
      <stop stop-color="#0B1F78"/>
      <stop offset=".52" stop-color="#1645CF"/>
      <stop offset="1" stop-color="#29145F"/>
    </linearGradient>
    <linearGradient id="cloud" x1="320" y1="394" x2="710" y2="788" gradientUnits="userSpaceOnUse">
      <stop stop-color="#F8FBFF"/>
      <stop offset=".55" stop-color="#A9C9FF"/>
      <stop offset="1" stop-color="#727CE7"/>
    </linearGradient>
    <linearGradient id="spark" x1="717" y1="226" x2="833" y2="390" gradientUnits="userSpaceOnUse">
      <stop stop-color="#FFF7B3"/>
      <stop offset=".45" stop-color="#FFCA4A"/>
      <stop offset="1" stop-color="#F97316"/>
    </linearGradient>
  </defs>
  <rect width="1024" height="1024" rx="220" fill="url(#background)"/>
  <circle cx="426" cy="369" r="215" fill="#1AC5FF" opacity=".3"/>
  <path fill="url(#cloud)" d="M214 705c0-114 89-207 202-214 33-102 129-175 241-175 120 0 221 84 246 197 83 17 145 90 145 178 0 102-82 185-184 185H376c-90 0-162-73-162-162v-9Z" transform="translate(-105 0) scale(.98)"/>
  <ellipse cx="453" cy="621" rx="48" ry="61" fill="#07154A"/>
  <ellipse cx="466" cy="606" rx="17" ry="21" fill="#FFF"/>
  <path d="M590 663c30 35 75 38 109 2" fill="none" stroke="#07154A" stroke-linecap="round" stroke-width="22"/>
  <path d="M494 707c30 31 66 33 92 1" fill="none" stroke="#07154A" stroke-linecap="round" stroke-width="20"/>
  <path fill="url(#spark)" d="m786 207 24 69 69 24-69 24-24 69-24-69-69-24 69-24 24-69Z"/>
  <rect x="692" y="251" width="19" height="55" rx="9.5" fill="#FFB21D" transform="rotate(-40 702 278)"/>
  <rect x="889" y="331" width="19" height="55" rx="9.5" fill="#FFB21D" transform="rotate(42 898 358)"/>
</svg>
